<svg width="421" height="517" viewBox="0 0 421 517" fill="none" xmlns="http://www.w3.org/2000/svg">
<path d="M128.846 49.9191V0.809531C57.684 0.539698 0 58.5538 0 129.52H49.0584C49.0584 85.5371 84.9088 49.9191 128.846 49.9191Z" fill="white"/>
<path d="M258.5 178.63V129.52C187.608 129.52 129.654 187.264 129.654 258.5H178.713C178.713 214.248 214.563 178.63 258.5 178.63Z" fill="white"/>
<path d="M129.654 79.8706V128.98C200.546 128.98 258.5 71.2359 258.5 0L209.172 0.269833C209.172 44.2526 173.591 79.8706 129.654 79.8706Z" fill="white"/>
<path d="M128.846 178.63V129.52C57.684 129.25 0 187.264 0 258.23H49.0584C49.0584 214.248 84.9088 178.63 128.846 178.63Z" fill="white"/>
<path d="M387.346 49.9191V0.809531C316.184 0.539698 258.5 58.5538 258.5 129.52H307.558C307.558 85.5371 343.409 49.9191 387.346 49.9191Z" fill="white"/>
<path d="M517 178.63V129.52C446.108 129.52 388.154 187.264 388.154 258.5H437.213C437.213 214.248 473.063 178.63 517 178.63Z" fill="white"/>
<path d="M388.154 79.8706V128.98C459.046 128.98 517 71.2359 517 0L467.672 0.269833C467.672 44.2526 432.091 79.8706 388.154 79.8706Z" fill="white"/>
<path d="M387.346 178.63V129.52C316.184 129.25 258.5 187.264 258.5 258.23H307.558C307.558 214.248 343.409 178.63 387.346 178.63Z" fill="white"/>
<path d="M128.846 308.419V259.31C57.684 259.04 0 317.054 0 388.02H49.0584C49.0584 344.037 84.9088 308.419 128.846 308.419Z" fill="white"/>
<path d="M258.5 437.13V388.02C187.608 388.02 129.654 445.764 129.654 517H178.713C178.713 472.748 214.563 437.13 258.5 437.13Z" fill="white"/>
<path d="M129.654 338.371V387.48C200.546 387.48 258.5 329.736 258.5 258.5L209.172 258.77C209.172 302.753 173.591 338.371 129.654 338.371Z" fill="white"/>
<path d="M128.846 437.13V388.02C57.684 387.75 0 445.764 0 516.73H49.0584C49.0584 472.748 84.9088 437.13 128.846 437.13Z" fill="white"/>
<path d="M387.346 308.419V259.31C316.184 259.04 258.5 317.054 258.5 388.02H307.558C307.558 344.037 343.409 308.419 387.346 308.419Z" fill="white"/>
<path d="M517 437.13V388.02C446.108 388.02 388.154 445.764 388.154 517H437.213C437.213 472.748 473.063 437.13 517 437.13Z" fill="white"/>
<path d="M388.154 338.371V387.48C459.046 387.48 517 329.736 517 258.5L467.672 258.77C467.672 302.753 432.091 338.371 388.154 338.371Z" fill="white"/>
<path d="M387.346 437.13V388.02C316.184 387.75 258.5 445.764 258.5 516.73H307.558C307.558 472.748 343.409 437.13 387.346 437.13Z" fill="white"/>
</svg>
