<svg width="14" height="15" viewBox="0 0 14 15" fill="none" xmlns="http://www.w3.org/2000/svg">
<path d="M5.91111 11L11.3944 5.125L10.3056 3.95833L5.91111 8.66667L3.69444 6.29167L2.60556 7.45833L5.91111 11ZM1.55556 15C1.12778 15 0.761574 14.8368 0.456944 14.5104C0.152315 14.184 0 13.7917 0 13.3333V1.66667C0 1.20833 0.152315 0.815972 0.456944 0.489583C0.761574 0.163194 1.12778 0 1.55556 0H12.4444C12.8722 0 13.2384 0.163194 13.5431 0.489583C13.8477 0.815972 14 1.20833 14 1.66667V13.3333C14 13.7917 13.8477 14.184 13.5431 14.5104C13.2384 14.8368 12.8722 15 12.4444 15H1.55556ZM1.55556 13.3333H12.4444V1.66667H1.55556V13.3333Z" fill="#FFE36C"/>
</svg>
