<svg width="26" height="26" viewBox="0 0 26 26" fill="none" xmlns="http://www.w3.org/2000/svg">
<path d="M19.1769 4.48056C18.3679 4.48056 17.7041 5.13397 17.7041 5.95333C17.7041 6.76232 18.3575 7.4261 19.1769 7.4261C19.9859 7.4261 20.6496 6.77269 20.6496 5.95333C20.6496 5.13397 19.9859 4.48056 19.1769 4.48056Z" fill="white"/>
<path d="M12.6429 6.35782C9.24102 6.35782 6.46143 9.12704 6.46143 12.5393C6.46143 15.9412 9.23065 18.7208 12.6429 18.7208C16.0448 18.7208 18.8244 15.9516 18.8244 12.5393C18.814 9.13741 16.0448 6.35782 12.6429 6.35782ZM12.6429 16.4909C10.4649 16.4909 8.69132 14.7173 8.69132 12.5393C8.69132 10.3613 10.4649 8.58772 12.6429 8.58772C14.821 8.58772 16.5945 10.3613 16.5945 12.5393C16.5945 14.7173 14.821 16.4909 12.6429 16.4909Z" fill="white"/>
<path d="M17.5488 25.0786H7.5298C3.37078 25.0786 0 21.6974 0 17.5488V7.5298C0 3.37078 3.38115 0 7.5298 0H17.5384C21.6974 0 25.0682 3.38115 25.0682 7.5298V17.5384C25.0786 21.6974 21.6974 25.0786 17.5488 25.0786ZM7.5298 2.35436C4.6776 2.35436 2.35436 4.6776 2.35436 7.5298V17.5384C2.35436 20.3906 4.6776 22.7138 7.5298 22.7138H17.5384C20.3906 22.7138 22.7138 20.3906 22.7138 17.5384V7.5298C22.7138 4.6776 20.3906 2.35436 17.5384 2.35436H7.5298Z" fill="white"/>
</svg>
