<svg width="231" height="191" viewBox="0 0 231 191" fill="none" xmlns="http://www.w3.org/2000/svg">
<path d="M51.6131 191C36.0872 191 23.4986 184.937 13.8474 172.81C4.6158 160.216 0 143.891 0 123.835C0 97.7155 6.9237 73.4615 20.7711 51.0732C34.6185 28.2185 51.8229 11.1941 72.3842 0L76.1608 8.39558C67.3488 15.8584 59.5858 25.42 52.8719 37.0806C46.158 48.7411 41.3324 63.2002 38.3951 80.4578L51.6131 83.9561C66.2997 87.6874 77.6294 94.6837 85.6022 104.945C93.9946 114.74 98.1908 126.634 98.1908 140.626C98.1908 155.552 93.5749 167.679 84.3433 177.007C75.5313 186.336 64.6213 191 51.6131 191ZM184.422 191C168.896 191 156.308 184.937 146.657 172.81C137.425 160.216 132.809 143.891 132.809 123.835C132.809 97.7155 139.733 73.4615 153.58 51.0732C167.428 28.2185 184.632 11.1941 205.193 0L208.97 8.39558C200.158 15.8584 192.395 25.42 185.681 37.0806C178.967 48.7411 174.142 63.2002 171.204 80.4578L184.422 83.9561C199.109 87.6874 210.439 94.6837 218.411 104.945C226.804 114.74 231 126.634 231 140.626C231 155.552 226.384 167.679 217.153 177.007C208.341 186.336 197.431 191 184.422 191Z" fill="#FFE36C"/>
</svg>
