<svg width="231" height="191" viewBox="0 0 231 191" fill="none" xmlns="http://www.w3.org/2000/svg">
<path d="M179.387 4.51216e-06C194.913 3.15484e-06 207.501 6.06349 217.153 18.1905C226.384 30.7839 231 47.1087 231 67.1648C231 93.2845 224.076 117.538 210.229 139.927C196.381 162.781 179.177 179.806 158.616 191L154.839 182.604C163.651 175.142 171.414 165.58 178.128 153.919C184.842 142.259 189.668 127.8 192.605 110.542L179.387 107.044C164.7 103.313 153.371 96.3163 145.398 86.055C137.005 76.2601 132.809 64.3663 132.809 50.3736C132.809 35.4481 137.425 23.3211 146.657 13.9927C155.469 4.66422 166.379 5.64937e-06 179.387 4.51216e-06ZM46.5776 1.61227e-05C62.1035 1.47654e-05 74.6921 6.06351 84.3433 18.1905C93.5749 30.7839 98.1907 47.1087 98.1907 67.1648C98.1907 93.2845 91.267 117.538 77.4196 139.927C63.5722 162.781 46.3678 179.806 25.8065 191L22.03 182.604C30.8419 175.142 38.6049 165.58 45.3188 153.919C52.0327 142.259 56.8583 127.8 59.7956 110.542L46.5776 107.044C31.891 103.313 20.5613 96.3163 12.5885 86.055C4.19617 76.2601 -2.63295e-05 64.3663 -2.75527e-05 50.3736C-2.88576e-05 35.4481 4.61578 23.3211 13.8474 13.9927C22.6594 4.66423 33.5695 1.72599e-05 46.5776 1.61227e-05Z" fill="#FFE36C"/>
</svg>
