<svg width="23" height="27" viewBox="0 0 23 27" fill="none" xmlns="http://www.w3.org/2000/svg">
<path d="M23 10.995C22.7804 11.0153 22.5607 11.0254 22.3411 11.0254C19.9145 11.0254 17.6658 9.84217 16.3374 7.8904V18.5796C16.3374 22.9382 12.6767 26.4777 8.16871 26.4777C3.66075 26.4777 0 22.9382 0 18.5796C0 14.221 3.66075 10.6815 8.16871 10.6815C8.33606 10.6815 8.50341 10.6916 8.67076 10.7018V14.5952C8.50341 14.575 8.33606 14.5446 8.16871 14.5446C5.86767 14.5446 3.99545 16.3447 3.99545 18.5796C3.99545 20.8044 5.85721 22.6146 8.16871 22.6146C10.4698 22.6146 12.5093 20.8651 12.5093 18.6302L12.5407 0.477722H16.3897C16.7558 3.81494 19.538 6.42405 23 6.66675V10.995Z" fill="white"/>
</svg>
