<svg width="26" height="27" viewBox="0 0 26 27" fill="none" xmlns="http://www.w3.org/2000/svg">
<path fill-rule="evenodd" clip-rule="evenodd" d="M22.3162 3.83907C19.9407 1.36751 16.7875 0.00627298 13.4233 0C6.48997 0 0.852833 5.87151 0.846804 13.0792C0.846804 15.3876 1.42559 17.6334 2.52287 19.6219L0.738281 26.403L7.40638 24.5838C9.24523 25.6251 11.3132 26.1772 13.4173 26.1772H13.4233C20.3507 26.1772 25.9939 20.3056 25.9999 13.0917C25.9939 9.59766 24.6916 6.31062 22.3162 3.83907ZM13.4233 23.9691C11.5423 23.9691 9.70344 23.4421 8.09972 22.451L7.71989 22.2126L3.76485 23.2916L4.81993 19.2769L4.57274 18.8629C3.52369 17.1315 2.97505 15.1304 2.97505 13.0792C2.97505 7.0822 7.66563 2.20809 13.4294 2.20809C16.2208 2.20809 18.8434 3.3435 20.821 5.39477C22.7924 7.45231 23.8777 10.1811 23.8777 13.0854C23.8716 19.0887 19.1811 23.9691 13.4233 23.9691ZM19.1509 15.8267C18.8374 15.6636 17.294 14.8732 17.0046 14.7603C16.7152 14.6537 16.5042 14.5972 16.2992 14.9234C16.0882 15.2496 15.4853 15.9898 15.3044 16.2031C15.1235 16.4227 14.9366 16.4478 14.6231 16.2847C14.3096 16.1216 13.2967 15.7766 12.097 14.66C11.1625 13.7943 10.5354 12.7216 10.3485 12.3954C10.1677 12.0692 10.3305 11.8936 10.4872 11.7305C10.6259 11.5862 10.8007 11.3478 10.9575 11.1596C11.1142 10.9714 11.1685 10.8334 11.271 10.6139C11.3735 10.3943 11.3252 10.2061 11.2469 10.043C11.1685 9.87995 10.5415 8.26779 10.2762 7.6154C10.023 6.97556 9.76373 7.06338 9.5708 7.05711C9.38993 7.04456 9.17891 7.04456 8.9679 7.04456C8.75688 7.04456 8.41926 7.12611 8.12986 7.4523C7.84047 7.7785 7.03258 8.5689 7.03258 10.1811C7.03258 11.7932 8.16001 13.3426 8.31676 13.5622C8.47352 13.7817 10.5294 17.0813 13.6826 18.499C14.4302 18.8378 15.015 19.0385 15.4732 19.1891C16.2268 19.44 16.9081 19.4023 17.4507 19.3208C18.0536 19.2267 19.3077 18.5304 19.573 17.7651C19.8322 16.9998 19.8322 16.3474 19.7538 16.2094C19.6754 16.0714 19.4705 15.9898 19.1509 15.8267Z" fill="white"/>
</svg>
