<svg width="110" height="110" viewBox="0 0 110 110" fill="none" xmlns="http://www.w3.org/2000/svg">
<path d="M58.4541 53.8065H58.7511C58.6466 53.6085 58.5476 53.416 58.4541 53.2235V53.8065Z" fill="black"/>
<path d="M59.3834 86.1795C54.5434 79.024 52.0904 72.204 52.0904 65.901C52.0904 61.5725 52.7559 57.6235 54.0704 54.065H32.0924V43.758H42.4049C43.8624 43.758 45.0889 43.263 46.0789 42.2785C47.0689 41.2885 47.5584 40.0675 47.5584 38.6045V28.2975H57.8654C60.6979 28.2975 63.1289 27.2855 65.1474 25.267C67.1659 23.2485 68.1724 20.823 68.1724 17.985V15.9225C75.9879 19.0135 82.2359 24.0405 86.9164 30.998C87.9119 32.483 88.7974 34.001 89.5839 35.5465C94.4569 36.663 98.9339 38.9895 102.954 42.4875C102.289 39.5615 101.376 36.718 100.182 33.957C97.4764 27.687 93.8024 22.231 89.1659 17.5945C84.5294 12.958 79.0734 9.28403 72.8034 6.57803C66.5389 3.88303 59.8399 2.53003 52.7119 2.53003C45.5839 2.53003 38.8849 3.88303 32.6149 6.58903C26.3449 9.29503 20.8834 12.9635 16.2469 17.6C11.6104 22.2365 7.93639 27.6925 5.23039 33.9625C2.52439 40.2325 1.17139 46.937 1.17139 54.065C1.17139 61.193 2.52439 67.892 5.23039 74.162C7.93639 80.432 11.6104 85.888 16.2469 90.5245C20.8834 95.161 26.3394 98.835 32.6094 101.541C38.8794 104.247 45.5784 105.6 52.7064 105.6C59.8234 105.6 66.5059 104.253 72.7704 101.558C67.1494 96.1675 62.6614 91.0195 59.3834 86.1795ZM47.5584 95.0345C37.1634 93.7475 28.5559 89.1935 21.7249 81.378C14.8939 73.5625 11.4839 64.4545 11.4839 54.065C11.4839 52.5195 11.5939 50.974 11.8084 49.4285C12.0229 47.883 12.2594 46.3375 12.5179 44.792L37.2569 69.531V74.6845C37.2569 77.517 38.2634 79.948 40.2874 81.9665C42.3059 83.985 44.7314 84.9915 47.5694 84.9915V95.0345H47.5584Z" fill="black"/>
<path d="M82.5603 74.4866C85.1068 74.4756 87.2848 73.5571 89.0888 71.7366C90.8928 69.9161 91.7893 67.7271 91.7783 65.1806C91.7673 62.6341 90.8488 60.4561 89.0283 58.6521C87.2078 56.8481 85.0188 55.9516 82.4723 55.9626C79.9258 55.9736 77.7478 56.8921 75.9438 58.7126C74.1398 60.5331 73.2433 62.7221 73.2543 65.2686C73.2653 67.8151 74.1838 69.9931 76.0043 71.7971C77.8303 73.6011 80.0138 74.4976 82.5603 74.4866ZM82.6703 96.6846C89.4793 90.3706 94.5283 84.6396 97.8118 79.4916C101.095 74.3436 102.729 69.7786 102.707 65.7966C102.674 59.6861 100.705 54.6921 96.7888 50.8146C92.8728 46.9371 88.0823 45.0121 82.4173 45.0396C76.7523 45.0671 71.9838 47.0416 68.1063 50.9576C64.2288 54.8736 62.3038 59.8896 62.3368 66.0001C62.3588 69.9821 64.0308 74.5306 67.3693 79.6456C70.6968 84.7551 75.7953 90.4366 82.6703 96.6846ZM82.7143 105.6C73.6503 97.9606 66.8688 90.8601 62.3808 84.2931C57.8928 77.7261 55.6323 71.6376 55.6048 66.0331C55.5608 57.6236 58.2338 50.9081 63.6238 45.8921C69.0138 40.8761 75.2618 38.3461 82.3843 38.3131C89.5068 38.2801 95.7823 40.7441 101.222 45.7051C106.661 50.6661 109.395 57.3541 109.439 65.7691C109.466 71.3791 107.266 77.4841 102.844 84.0951C98.4223 90.7061 91.7068 97.8726 82.7143 105.6Z" fill="#FFE36C"/>
</svg>
