<svg width="110" height="110" viewBox="0 0 110 110" fill="none" xmlns="http://www.w3.org/2000/svg">
<path d="M47.9052 73.1115H56.0452V80.0085H47.9052V89.342H40.3867V80.0085H32.2192V73.1115H40.3812V64.042H47.9052V73.1115Z" fill="#FFE36C" stroke="#FFE36C" stroke-width="3" stroke-miterlimit="10"/>
<path d="M56.8481 75.8505L58.9711 58.0745H79.2826V64.328H65.5106L64.7241 71.2305C65.2961 70.895 66.0496 70.598 66.9791 70.345C67.9086 70.092 68.8216 69.96 69.7126 69.96C73.1666 69.96 75.8176 70.983 77.6711 73.029C79.5246 75.075 80.4541 77.9405 80.4541 81.6365C80.4541 83.864 79.9591 85.8825 78.9636 87.6865C77.9681 89.4905 76.5711 90.882 74.7726 91.85C72.9741 92.818 70.8511 93.3075 68.3981 93.3075C66.2201 93.3075 64.1741 92.8565 62.2656 91.96C60.3571 91.0635 58.8611 89.8315 57.7776 88.264C56.6941 86.6965 56.1606 84.9255 56.1771 82.9565H64.2456C64.3226 84.227 64.7296 85.2335 65.4611 85.9815C66.1926 86.7295 67.1551 87.1035 68.3486 87.1035C71.0546 87.1035 72.4076 85.1015 72.4076 81.0975C72.4076 77.396 70.7521 75.548 67.4411 75.548C65.5656 75.548 64.1631 76.153 63.2391 77.3575L56.8481 75.8505Z" fill="#FFE36C" stroke="#FFE36C" stroke-width="3" stroke-miterlimit="10"/>
<path d="M105.05 78.6279C105.05 83.3249 103.994 86.9439 101.888 89.4904C99.7813 92.0369 96.8058 93.3074 92.9723 93.3074C89.1058 93.3074 86.1138 92.0259 83.9963 89.4629C81.8788 86.8999 80.8228 83.2864 80.8228 78.6279V72.2809C80.8228 67.5839 81.8788 63.9649 83.9853 61.4184C86.0918 58.8719 89.0728 57.6014 92.9228 57.6014C96.7728 57.6014 99.7593 58.8829 101.877 61.4459C103.994 64.0089 105.05 67.6279 105.05 72.3084V78.6279ZM97.0038 71.2524C97.0038 68.7554 96.6793 66.8854 96.0248 65.6534C95.3703 64.4214 94.3363 63.8054 92.9228 63.8054C91.5368 63.8054 90.5303 64.3774 89.9033 65.5214C89.2763 66.6654 88.9353 68.4034 88.8913 70.7244V79.6069C88.8913 82.2029 89.2158 84.1004 89.8703 85.2994C90.5248 86.4984 91.5588 87.1034 92.9723 87.1034C94.3418 87.1034 95.3538 86.5204 96.0028 85.3489C96.6573 84.1774 96.9873 82.3459 97.0038 79.8489V71.2524Z" fill="#FFE36C" stroke="#FFE36C" stroke-width="3" stroke-miterlimit="10"/>
<path d="M68.6732 97.482H26.1912C26.1912 97.482 26.1912 81.851 26.1912 81.554C26.1912 74.437 29.8817 67.7655 35.7557 63.789C36.0362 63.5965 36.3277 63.415 36.6192 63.2335V60.2745H51.6727V60.7035C52.7397 60.907 53.7682 61.1985 54.7692 61.5615L55.6382 54.307H65.9892C70.0097 51.557 73.1887 48.015 75.5152 43.648C78.0397 38.9125 79.2992 33.847 79.2992 28.446V12.518H89.9197V1.89746H4.9502V12.518H15.5707V28.446C15.5707 33.847 16.8302 38.9125 19.3547 43.648C21.8792 48.3835 25.3937 52.1675 29.9092 55C25.3937 57.8325 21.8792 61.6165 19.3547 66.352C16.8302 71.0875 15.5707 76.153 15.5707 81.554V97.482H4.9502V108.102H89.9087V97.482H79.2882V93.2525C78.4687 93.984 77.4567 94.468 76.5602 95.1665C73.0402 97.933 68.6732 97.482 68.6732 97.482ZM26.1912 28.4515V12.518H68.6732V28.446C68.6732 34.287 66.5942 39.2865 62.4362 43.4445C58.2782 47.6025 53.2787 49.6815 47.4377 49.6815C41.5967 49.6815 36.5917 47.608 32.4282 43.45C28.2702 39.292 26.1912 34.2925 26.1912 28.4515Z" fill="black"/>
<path d="M56.045 73.1115H53.383L52.712 78.749L54.593 79.189H52.4425L52.437 80.014H56.045V73.1115Z" fill="#FFE36C"/>
<path d="M64.9276 69.498L65.5161 64.328H74.3216C72.8366 61.9795 71.0711 59.895 69.0306 58.0745H58.9766L58.3496 63.2995C59.7906 64.185 61.1491 65.2685 62.4306 66.55C63.3711 67.4905 64.1961 68.475 64.9276 69.498Z" fill="#FFE36C"/>
<path d="M59.8071 76.549V69.3495H57.6291L56.8481 75.8505L59.8071 76.549Z" fill="#FFE36C"/>
<path d="M56.2102 83.7759H59.8072V82.9564H56.1772C56.1772 83.2314 56.1937 83.5064 56.2102 83.7759Z" fill="#FFE36C"/>
<path d="M79.2882 64.3279V61.7484C78.8702 62.5514 78.5237 63.4204 78.2212 64.3279H79.2882Z" fill="#FFE36C"/>
<path d="M79.2881 87.0485C80.0636 85.4095 80.4541 83.6055 80.4541 81.6365C80.4541 78.463 79.7666 75.9 78.3916 73.942C78.9856 76.4005 79.2881 78.936 79.2881 81.5485V87.0485Z" fill="#FFE36C"/>
<path d="M83.0556 68.0955V62.7495C82.1426 64.2455 81.5101 66.0275 81.1636 68.0955H83.0556Z" fill="#FFE36C"/>
<path d="M80.8613 70.9829C80.8448 71.4064 80.8228 71.8354 80.8228 72.2809V78.6279C80.8228 82.4669 81.5543 85.5799 82.9843 87.9944C83.8038 86.0309 84.2218 83.9024 84.2218 81.6364C84.2218 77.2529 83.0833 73.6834 80.8613 70.9829Z" fill="#FFE36C"/>
</svg>
