<svg width="129" height="129" viewBox="0 0 129 129" fill="none" xmlns="http://www.w3.org/2000/svg">
<path d="M53.2511 81.5602H60.1139V87.3717H53.2511V95.2342H46.9172V87.3717H40.0415V81.5602H46.9172V73.917H53.2511V81.5602Z" fill="#FFE36C" stroke="#FFE36C" stroke-width="3" stroke-miterlimit="10"/>
<path d="M77.9545 98.1755H71.1562V76.5357L64.4805 78.4901V73.343L77.3353 68.8989H77.961V98.1755H77.9545Z" fill="#FFE36C" stroke="#FFE36C" stroke-width="3" stroke-miterlimit="10"/>
<path d="M98.7045 68.886L106.812 94.1571L114.894 68.886H126.42V105.206H117.642V96.7242L118.487 79.3608L109.708 105.206H103.923L95.1183 79.335L95.9696 96.7242V105.206H87.2041V68.886H98.7045Z" fill="#FFE36C" stroke="#FFE36C" stroke-width="3" stroke-miterlimit="10"/>
<path d="M53.2511 81.5602H60.1139V87.3717H53.2511V95.2342H46.9172V87.3717H40.0415V81.5602H46.9172V73.917H53.2511V81.5602Z" fill="#FFE36C"/>
<path d="M77.9545 98.1755H71.1562V76.5357L64.4805 78.4901V73.343L77.3353 68.8989H77.961V98.1755H77.9545Z" fill="#FFE36C"/>
<path d="M66.3643 64.1324C67.0415 64.3259 67.7381 64.4484 68.467 64.4936C69.1894 64.5387 69.9376 64.5645 70.7116 64.5645C76.5101 64.5645 81.4315 62.5392 85.4885 58.4822C89.5456 54.4251 91.5709 49.4973 91.5709 43.7052C91.5709 37.9131 89.5456 32.9853 85.4885 28.9283C81.4315 24.8712 76.5037 22.8459 70.7116 22.8459C69.9376 22.8459 69.2152 22.8717 68.5379 22.9169C67.8607 22.962 67.1383 23.0846 66.3643 23.2781C68.8733 26.2709 70.8083 29.4959 72.1628 32.9531C73.5173 36.4103 74.1881 39.9965 74.1881 43.7052C74.1881 47.4462 73.5109 51.0647 72.1628 54.5541C70.8083 58.0371 68.8733 61.2299 66.3643 64.1324Z" fill="black"/>
<path d="M42.8925 64.5645C48.6911 64.5645 53.6124 62.5392 57.6695 58.4822C61.7265 54.4251 63.7518 49.4973 63.7518 43.7052C63.7518 37.9131 61.7265 32.9853 57.6695 28.9283C53.6124 24.8712 48.6846 22.8459 42.8925 22.8459C37.1004 22.8459 32.1726 24.8712 28.1156 28.9283C24.0585 32.9853 22.0332 37.9131 22.0332 43.7052C22.0332 49.4973 24.0585 54.4251 28.1156 58.4822C32.1662 62.5328 37.094 64.5645 42.8925 64.5645ZM35.5008 36.3845C37.5326 34.3076 39.9707 33.2691 42.8151 33.2691C45.666 33.2691 48.1299 34.3076 50.2068 36.3845C52.2837 38.4614 53.3222 40.9253 53.3222 43.7762C53.3222 46.6271 52.2837 49.0652 50.2068 51.0905C48.1299 53.1222 45.666 54.1349 42.8151 54.1349C39.9642 54.1349 37.5261 53.1222 35.5008 51.0905C33.4691 49.0587 32.4564 46.6206 32.4564 43.7762C32.4564 40.9253 33.4755 38.4614 35.5008 36.3845Z" fill="black"/>
<path d="M83.7533 101.626V88.2555C83.4759 87.546 83.147 86.8623 82.7406 86.1979C82.3407 85.5465 81.8892 84.9402 81.4119 84.3532V101.626H67.7057V95.86H56.7084V98.6915H43.4666V95.86H11.5971V92.964C11.5971 92.377 11.739 91.8416 12.0293 91.3643C12.3195 90.887 12.7065 90.4485 13.1903 90.0679C17.7311 87.4621 22.4847 85.4562 27.4641 84.0565C30.4569 83.2116 33.4949 82.631 36.5909 82.2956V78.1096H43.4666V71.5306C43.2537 71.5306 43.0409 71.5177 42.828 71.5177C36.7005 71.5177 30.6633 72.2917 24.7164 73.8333C18.7695 75.3813 13.1903 77.7935 7.97868 81.0766C5.85663 82.4311 4.18608 84.1339 2.97993 86.1915C1.77378 88.249 1.16748 90.5065 1.16748 92.9575V106.29H84.624V101.62H83.7533V101.626Z" fill="black"/>
</svg>
