<svg width="110" height="111" viewBox="0 0 110 111" fill="none" xmlns="http://www.w3.org/2000/svg">
<path d="M58.4541 54.2324H58.7511C58.6466 54.0354 58.5476 53.8439 58.4541 53.6523V54.2324Z" fill="white"/>
<path d="M59.3834 86.4391C54.5434 79.3202 52.0904 72.535 52.0904 66.2642C52.0904 61.9578 52.7559 58.029 54.0704 54.4886H32.0924V44.2343H42.4049C43.8624 44.2343 45.0889 43.7418 46.0789 42.7623C47.0689 41.7774 47.5584 40.5626 47.5584 39.1071V28.8527H57.8654C60.6979 28.8527 63.1289 27.8459 65.1474 25.8377C67.1659 23.8295 68.1724 21.4164 68.1724 18.5929V16.5409C75.9879 19.6161 82.2359 24.6175 86.9164 31.5394C87.9119 33.0168 88.7974 34.5271 89.5839 36.0647C94.4569 37.1755 98.9339 39.4901 102.954 42.9703C102.289 40.0592 101.376 37.2302 100.182 34.4833C97.4764 28.2453 93.8024 22.8172 89.1659 18.2044C84.5294 13.5915 79.0734 9.93631 72.8034 7.24413C66.5389 4.56289 59.8399 3.2168 52.7119 3.2168C45.5839 3.2168 38.8849 4.56289 32.6149 7.25507C26.3449 9.94725 20.8834 13.597 16.2469 18.2098C11.6104 22.8227 7.93639 28.2508 5.23039 34.4888C2.52439 40.7268 1.17139 47.397 1.17139 54.4886C1.17139 61.5802 2.52439 68.245 5.23039 74.483C7.93639 80.721 11.6104 86.1491 16.2469 90.762C20.8834 95.3748 26.3394 99.03 32.6094 101.722C38.8794 104.414 45.5784 105.76 52.7064 105.76C59.8234 105.76 66.5059 104.42 72.7704 101.739C67.1494 96.3761 62.6614 91.2544 59.3834 86.4391ZM47.5584 95.2489C37.1634 93.9685 28.5559 89.4378 21.7249 81.6622C14.8939 73.8866 11.4839 64.8251 11.4839 54.4886C11.4839 52.951 11.5939 51.4134 11.8084 49.8758C12.0229 48.3382 12.2594 46.8006 12.5179 45.263L37.2569 69.8757V75.0028C37.2569 77.8209 38.2634 80.2395 40.2874 82.2477C42.3059 84.2559 44.7314 85.2572 47.5694 85.2572V95.2489H47.5584Z" fill="white"/>
<path d="M82.5603 74.8055C85.1068 74.7946 87.2848 73.8808 89.0888 72.0696C90.8928 70.2584 91.7893 68.0805 91.7783 65.547C91.7673 63.0135 90.8488 60.8467 89.0283 59.0519C87.2078 57.2571 85.0188 56.3652 82.4723 56.3761C79.9258 56.387 77.7478 57.3009 75.9438 59.1121C74.1398 60.9233 73.2433 63.1011 73.2543 65.6346C73.2653 68.1681 74.1838 70.335 76.0043 72.1297C77.8303 73.9245 80.0138 74.8165 82.5603 74.8055ZM82.6703 96.8902C89.4793 90.6084 94.5283 84.9067 97.8118 79.785C101.095 74.6632 102.729 70.1216 102.707 66.1599C102.674 60.0806 100.705 55.1121 96.7888 51.2544C92.8728 47.3967 88.0823 45.4815 82.4173 45.5089C76.7523 45.5362 71.9838 47.5007 68.1063 51.3967C64.2288 55.2927 62.3038 60.2831 62.3368 66.3624C62.3588 70.324 64.0308 74.8493 67.3693 79.9382C70.6968 85.0216 75.7953 90.6741 82.6703 96.8902ZM82.7143 105.76C73.6503 98.1596 66.8688 91.0954 62.3808 84.5619C57.8928 78.0285 55.6323 71.9711 55.6048 66.3952C55.5608 58.0286 58.2338 51.3474 63.6238 46.357C69.0138 41.3666 75.2618 38.8496 82.3843 38.8167C89.5068 38.7839 95.7823 41.2353 101.222 46.171C106.661 51.1067 109.395 57.7605 109.439 66.1325C109.466 71.7139 107.266 77.7877 102.844 84.3649C98.4223 90.9422 91.7068 98.0721 82.7143 105.76Z" fill="#FFE36C"/>
</svg>
