<svg width="110" height="111" viewBox="0 0 110 111" fill="none" xmlns="http://www.w3.org/2000/svg">
<path d="M47.9052 73.4636H56.0452V80.3254H47.9052V89.6112H40.3867V80.3254H32.2192V73.4636H40.3812V64.4404H47.9052V73.4636Z" fill="#FFE36C" stroke="#FFE36C" stroke-width="3" stroke-miterlimit="10"/>
<path d="M56.8481 76.1891L58.9711 58.5039H79.2826V64.7255H65.5106L64.7241 71.5927C65.2961 71.2589 66.0496 70.9635 66.9791 70.7118C67.9086 70.46 68.8216 70.3287 69.7126 70.3287C73.1666 70.3287 75.8176 71.3465 77.6711 73.382C79.5246 75.4176 80.4541 78.2685 80.4541 81.9456C80.4541 84.1617 79.9591 86.1699 78.9636 87.9647C77.9681 89.7595 76.5711 91.1439 74.7726 92.1069C72.9741 93.07 70.8511 93.557 68.3981 93.557C66.2201 93.557 64.1741 93.1083 62.2656 92.2164C60.3571 91.3245 58.8611 90.0987 57.7776 88.5392C56.6941 86.9798 56.1606 85.2178 56.1771 83.2589H64.2456C64.3226 84.5229 64.7296 85.5242 65.4611 86.2684C66.1926 87.0126 67.1551 87.3847 68.3486 87.3847C71.0546 87.3847 72.4076 85.3929 72.4076 81.4093C72.4076 77.7267 70.7521 75.8882 67.4411 75.8882C65.5656 75.8882 64.1631 76.4901 63.2391 77.6884L56.8481 76.1891Z" fill="#FFE36C" stroke="#FFE36C" stroke-width="3" stroke-miterlimit="10"/>
<path d="M105.05 78.9523C105.05 83.6254 103.994 87.2259 101.888 89.7594C99.7813 92.2929 96.8058 93.5569 92.9723 93.5569C89.1058 93.5569 86.1138 92.2819 83.9963 89.732C81.8788 87.1821 80.8228 83.587 80.8228 78.9523V72.6377C80.8228 67.9647 81.8788 64.3642 83.9853 61.8307C86.0918 59.2972 89.0728 58.0332 92.9228 58.0332C96.7728 58.0332 99.7593 59.3082 101.877 61.8581C103.994 64.408 105.05 68.0085 105.05 72.6651V78.9523ZM97.0038 71.6145C97.0038 69.1302 96.6793 67.2698 96.0248 66.0441C95.3703 64.8184 94.3363 64.2055 92.9228 64.2055C91.5368 64.2055 90.5303 64.7746 89.9033 65.9128C89.2763 67.0509 88.9353 68.78 88.8913 71.0892V79.9263C88.8913 82.5091 89.2158 84.3969 89.8703 85.5898C90.5248 86.7826 91.5588 87.3846 92.9723 87.3846C94.3418 87.3846 95.3538 86.8045 96.0028 85.639C96.6573 84.4735 96.9873 82.6513 97.0038 80.1671V71.6145Z" fill="#FFE36C" stroke="#FFE36C" stroke-width="3" stroke-miterlimit="10"/>
<path d="M68.6732 97.7097H26.1912C26.1912 97.7097 26.1912 82.1585 26.1912 81.863C26.1912 74.7824 29.8817 68.1449 35.7557 64.1887C36.0362 63.9972 36.3277 63.8167 36.6192 63.6361V60.6922H51.6727V61.119C52.7397 61.3215 53.7682 61.6115 54.7692 61.9726L55.6382 54.7552H65.9892C70.0097 52.0192 73.1887 48.4953 75.5152 44.1506C78.0397 39.4393 79.2992 34.3996 79.2992 29.0262V13.1795H89.9197V2.61328H4.9502V13.1795H15.5707V29.0262C15.5707 34.3996 16.8302 39.4393 19.3547 44.1506C21.8792 48.8619 25.3937 52.6266 29.9092 55.4446C25.3937 58.2627 21.8792 62.0273 19.3547 66.7387C16.8302 71.45 15.5707 76.4896 15.5707 81.863V97.7097H4.9502V108.276H89.9087V97.7097H79.2882V93.5018C78.4687 94.2296 77.4567 94.7111 76.5602 95.406C73.0402 98.1584 68.6732 97.7097 68.6732 97.7097ZM26.1912 29.0317V13.1795H68.6732V29.0262C68.6732 34.8374 66.5942 39.8114 62.4362 43.9481C58.2782 48.0849 53.2787 50.1533 47.4377 50.1533C41.5967 50.1533 36.5917 48.0904 32.4282 43.9536C28.2702 39.8168 26.1912 34.8429 26.1912 29.0317Z" fill="white"/>
<path d="M56.045 73.4639H53.383L52.712 79.0726L54.593 79.5103H52.4425L52.437 80.3311H56.045V73.4639Z" fill="#FFE36C"/>
<path d="M64.9276 69.8691L65.5161 64.7255H74.3216C72.8366 62.389 71.0711 60.3151 69.0306 58.5039H58.9766L58.3496 63.7022C59.7906 64.5832 61.1491 65.6612 62.4306 66.9361C63.3711 67.8718 64.1961 68.8513 64.9276 69.8691Z" fill="#FFE36C"/>
<path d="M59.8071 76.8834V69.7207H57.6291L56.8481 76.1885L59.8071 76.8834Z" fill="#FFE36C"/>
<path d="M56.2102 84.0741H59.8072V83.2588H56.1772C56.1772 83.5324 56.1937 83.806 56.2102 84.0741Z" fill="#FFE36C"/>
<path d="M79.2882 64.7245V62.1582C78.8702 62.9571 78.5237 63.8217 78.2212 64.7245H79.2882Z" fill="#FFE36C"/>
<path d="M79.2881 87.3296C80.0636 85.699 80.4541 83.9042 80.4541 81.9452C80.4541 78.7879 79.7666 76.238 78.3916 74.29C78.9856 76.736 79.2881 79.2585 79.2881 81.8577V87.3296Z" fill="#FFE36C"/>
<path d="M83.0556 68.473V63.1543C82.1426 64.6427 81.5101 66.4156 81.1636 68.473H83.0556Z" fill="#FFE36C"/>
<path d="M80.8613 71.3457C80.8448 71.767 80.8228 72.1939 80.8228 72.6371V78.9517C80.8228 82.7711 81.5543 85.8682 82.9843 88.2703C83.8038 86.3169 84.2218 84.1992 84.2218 81.9448C84.2218 77.5837 83.0833 74.0324 80.8613 71.3457Z" fill="#FFE36C"/>
</svg>
