<svg width="129" height="130" viewBox="0 0 129 130" fill="none" xmlns="http://www.w3.org/2000/svg">
<path d="M53.2511 81.8689H60.1139V87.6506H53.2511V95.473H46.9172V87.6506H40.0415V81.8689H46.9172V74.2646H53.2511V81.8689Z" fill="#FFE36C" stroke="#FFE36C" stroke-width="3" stroke-miterlimit="10"/>
<path d="M77.9545 98.3995H71.1562V76.8703L64.4805 78.8146V73.6938L77.3353 69.2725H77.961V98.3995H77.9545Z" fill="#FFE36C" stroke="#FFE36C" stroke-width="3" stroke-miterlimit="10"/>
<path d="M98.7045 69.2598L106.812 94.4018L114.894 69.2598H126.42V105.394H117.642V96.9558L118.487 79.6811L109.708 105.394H103.923L95.1183 79.6554L95.9696 96.9558V105.394H87.2041V69.2598H98.7045Z" fill="#FFE36C" stroke="#FFE36C" stroke-width="3" stroke-miterlimit="10"/>
<path d="M53.2511 81.8698H60.1139V87.6516H53.2511V95.474H46.9172V87.6516H40.0415V81.8698H46.9172V74.2656H53.2511V81.8698Z" fill="#FFE36C"/>
<path d="M77.9545 98.3995H71.1562V76.8703L64.4805 78.8146V73.6938L77.3353 69.2725H77.961V98.3995H77.9545Z" fill="#FFE36C"/>
<path d="M66.3643 64.5307C67.0415 64.7232 67.7381 64.8451 68.467 64.8901C69.1894 64.935 69.9376 64.9606 70.7116 64.9606C76.5101 64.9606 81.4315 62.9457 85.4885 58.9094C89.5456 54.873 91.5709 49.9704 91.5709 44.2079C91.5709 38.4453 89.5456 33.5427 85.4885 29.5064C81.4315 25.47 76.5037 23.4551 70.7116 23.4551C69.9376 23.4551 69.2152 23.4807 68.5379 23.5257C67.8607 23.5706 67.1383 23.6925 66.3643 23.885C68.8733 26.8625 70.8083 30.0711 72.1628 33.5106C73.5173 36.9502 74.1881 40.5181 74.1881 44.2079C74.1881 47.9298 73.5109 51.5297 72.1628 55.0014C70.8083 58.4666 68.8733 61.643 66.3643 64.5307Z" fill="white"/>
<path d="M42.8925 64.9606C48.6911 64.9606 53.6124 62.9457 57.6695 58.9094C61.7265 54.873 63.7518 49.9704 63.7518 44.2079C63.7518 38.4453 61.7265 33.5427 57.6695 29.5064C53.6124 25.47 48.6846 23.4551 42.8925 23.4551C37.1004 23.4551 32.1726 25.47 28.1156 29.5064C24.0585 33.5427 22.0332 38.4453 22.0332 44.2079C22.0332 49.9704 24.0585 54.873 28.1156 58.9094C32.1662 62.9393 37.094 64.9606 42.8925 64.9606ZM35.5008 36.9245C37.5326 34.8582 39.9707 33.8251 42.8151 33.8251C45.666 33.8251 48.1299 34.8582 50.2068 36.9245C52.2837 38.9908 53.3222 41.4421 53.3222 44.2785C53.3222 47.1148 52.2837 49.5404 50.2068 51.5554C48.1299 53.5768 45.666 54.5843 42.8151 54.5843C39.9642 54.5843 37.5261 53.5768 35.5008 51.5554C33.4691 49.534 32.4564 47.1084 32.4564 44.2785C32.4564 41.4421 33.4755 38.9908 35.5008 36.9245Z" fill="white"/>
<path d="M83.7533 101.833V88.5302C83.4759 87.8243 83.147 87.1441 82.7406 86.4832C82.3407 85.835 81.8892 85.2318 81.4119 84.6479V101.833H67.7057V96.0959H56.7084V98.913H43.4666V96.0959H11.5971V93.2147C11.5971 92.6307 11.739 92.0981 12.0293 91.6232C12.3195 91.1484 12.7065 90.712 13.1903 90.3334C17.7311 87.7409 22.4847 85.7452 27.4641 84.3527C30.4569 83.5121 33.4949 82.9345 36.5909 82.6008V78.4362H43.4666V71.8908C43.2537 71.8908 43.0409 71.8779 42.828 71.8779C36.7005 71.8779 30.6633 72.648 24.7164 74.1817C18.7695 75.7218 13.1903 78.1217 7.97868 81.388C5.85663 82.7356 4.18608 84.4297 2.97993 86.4768C1.77378 88.5238 1.16748 90.7698 1.16748 93.2082V106.472H84.624V101.826H83.7533V101.833Z" fill="white"/>
</svg>
